# xmcd
#
# Track frame offsets:
#	150
#	14672
#	38037
#	59000
#	81843
#	107445
#	126451
#	143704
#	164435
#	182542
#	207820
#	226736
#
# Disc length: 3239 seconds
#
# Revision: 0
# Processed by: cddbd v1.4PL0 Copyright (c) Steve Scherf et al.
# Submitted via: dBpowerAMP V4.0
#
DISCID=9f0ca50c
DTITLE=Willie Clayton - Essential Love Songs
DYEAR=1900
DGENRE=Blues
TTITLE0=Love Pains
TTITLE1=What A Way to Put It
TTITLE2=So Tied Up
TTITLE3=Best Years Of My Life
TTITLE4=In The Mood
TTITLE5=Show Me
TTITLE6=No Getting Over Me
TTITLE7=Meet Me Tonight
TTITLE8=Soap Opera Love Affair
TTITLE9=That's The Way I Feel About You
TTITLE10=Missing You
TTITLE11=Special Lady
EXTD=
EXTT0=
EXTT1=
EXTT2=
EXTT3=
EXTT4=
EXTT5=
EXTT6=
EXTT7=
EXTT8=
EXTT9=
EXTT10=
EXTT11=
PLAYORDER=
